<?xml version="1.0" encoding="UTF-8" standalone="no"?>
<!-- Created with Inkscape (http://www.inkscape.org/) -->

<svg
   xmlns:dc="http://purl.org/dc/elements/1.1/"
   xmlns:cc="http://creativecommons.org/ns#"
   xmlns:rdf="http://www.w3.org/1999/02/22-rdf-syntax-ns#"
   xmlns:svg="http://www.w3.org/2000/svg"
   xmlns="http://www.w3.org/2000/svg"
   xmlns:xlink="http://www.w3.org/1999/xlink"
   xmlns:sodipodi="http://sodipodi.sourceforge.net/DTD/sodipodi-0.dtd"
   xmlns:inkscape="http://www.inkscape.org/namespaces/inkscape"
   version="1.1"
   width="128"
   height="128"
   id="svg3489"
   inkscape:version="0.91 r"
   sodipodi:docname="browser-manager.svg">
  <sodipodi:namedview
     pagecolor="#ffffff"
     bordercolor="#666666"
     borderopacity="1"
     objecttolerance="10"
     gridtolerance="10"
     guidetolerance="10"
     inkscape:pageopacity="0"
     inkscape:pageshadow="2"
     inkscape:window-width="1364"
     inkscape:window-height="701"
     id="namedview154"
     showgrid="false"
     inkscape:zoom="2.8284271"
     inkscape:cx="51.908381"
     inkscape:cy="60.284271"
     inkscape:window-x="0"
     inkscape:window-y="0"
     inkscape:window-maximized="1"
     inkscape:current-layer="svg3489">
    <inkscape:grid
       type="xygrid"
       id="grid4240" />
  </sodipodi:namedview>
  <defs
     id="defs3491">
    <linearGradient
       id="linearGradient4335">
      <stop
         id="stop4337"
         style="stop-color:#ecb090;stop-opacity:1"
         offset="0" />
      <stop
         id="stop4339"
         style="stop-color:#ea6a42;stop-opacity:1"
         offset="0.26238" />
      <stop
         id="stop4341"
         style="stop-color:#e64b36;stop-opacity:1"
         offset="0.704952" />
      <stop
         id="stop4343"
         style="stop-color:#a02b2b;stop-opacity:1"
         offset="1" />
    </linearGradient>
    <linearGradient
       id="linearGradient4325">
      <stop
         id="stop4327"
         style="stop-color:#b0ec90;stop-opacity:1"
         offset="0" />
      <stop
         id="stop4329"
         style="stop-color:#56ea42;stop-opacity:1"
         offset="0.26238" />
      <stop
         id="stop4331"
         style="stop-color:#4be636;stop-opacity:1"
         offset="0.704952" />
      <stop
         id="stop4333"
         style="stop-color:#2ba039;stop-opacity:1"
         offset="1" />
    </linearGradient>
    <linearGradient
       id="linearGradient4806">
      <stop
         id="stop4808"
         style="stop-color:#ffffff;stop-opacity:1"
         offset="0" />
      <stop
         id="stop4810"
         style="stop-color:#ffffff;stop-opacity:0.23529412"
         offset="0.42447853" />
      <stop
         id="stop4812"
         style="stop-color:#ffffff;stop-opacity:0.15686275"
         offset="0.82089913" />
      <stop
         id="stop4814"
         style="stop-color:#ffffff;stop-opacity:0.39215687"
         offset="1" />
    </linearGradient>
    <linearGradient
       id="linearGradient3820-7-2">
      <stop
         id="stop3822-2-6"
         style="stop-color:#3d3d3d;stop-opacity:1"
         offset="0" />
      <stop
         id="stop3864-8-7"
         style="stop-color:#686868;stop-opacity:0.49803922"
         offset="0.5" />
      <stop
         id="stop3824-1-2"
         style="stop-color:#686868;stop-opacity:0"
         offset="1" />
    </linearGradient>
    <linearGradient
       id="linearGradient3957-2">
      <stop
         offset="0"
         style="stop-color:#ffffff;stop-opacity:1"
         id="stop3959-62" />
      <stop
         offset="1"
         style="stop-color:#c1c1c1;stop-opacity:1"
         id="stop3961-5" />
    </linearGradient>
    <linearGradient
       id="linearGradient2867-449-88-871-390-598-476-591-434-148-57-177-3-8">
      <stop
         offset="0"
         style="stop-color:#90dbec;stop-opacity:1"
         id="stop3750-8-9" />
      <stop
         offset="0.26238"
         style="stop-color:#42baea;stop-opacity:1"
         id="stop3752-3-2" />
      <stop
         offset="0.704952"
         style="stop-color:#3689e6;stop-opacity:1"
         id="stop3754-7-2" />
      <stop
         offset="1"
         style="stop-color:#2b63a0;stop-opacity:1"
         id="stop3756-9-3" />
    </linearGradient>
    <linearGradient
       id="linearGradient3957">
      <stop
         offset="0"
         style="stop-color:#ffffff;stop-opacity:1"
         id="stop3959" />
      <stop
         offset="1"
         style="stop-color:#c1c1c1;stop-opacity:1"
         id="stop3961" />
    </linearGradient>
    <linearGradient
       id="linearGradient4168">
      <stop
         offset="0"
         style="stop-color:#f8b17e;stop-opacity:1"
         id="stop4170" />
      <stop
         offset="0.23208089"
         style="stop-color:#e35d4f;stop-opacity:1"
         id="stop4172" />
      <stop
         offset="0.5908742"
         style="stop-color:#c6262e;stop-opacity:1"
         id="stop4174" />
      <stop
         offset="1"
         style="stop-color:#690b54;stop-opacity:1"
         id="stop4176" />
    </linearGradient>
    <linearGradient
       inkscape:collect="always"
       xlink:href="#linearGradient4806"
       id="linearGradient3293"
       gradientUnits="userSpaceOnUse"
       gradientTransform="matrix(2.3268746,0,0,2.3268746,-135.94475,31.157217)"
       x1="71.204407"
       y1="15.369057"
       x2="71.204407"
       y2="40.495617" />
    <radialGradient
       inkscape:collect="always"
       xlink:href="#linearGradient3820-7-2"
       id="radialGradient3300"
       gradientUnits="userSpaceOnUse"
       gradientTransform="matrix(0.38235362,0,0,0.11948554,-5.913044,98.255311)"
       cx="99.157013"
       cy="186.17059"
       fx="99.157013"
       fy="186.17059"
       r="62.769119" />
    <linearGradient
       inkscape:collect="always"
       xlink:href="#linearGradient3957"
       id="linearGradient4131"
       gradientUnits="userSpaceOnUse"
       gradientTransform="translate(8.0000046,72.000003)"
       x1="24"
       y1="22"
       x2="24"
       y2="26" />
    <linearGradient
       inkscape:collect="always"
       xlink:href="#linearGradient3957-2"
       id="linearGradient4137"
       gradientUnits="userSpaceOnUse"
       gradientTransform="matrix(1.4390244,0,0,1.4390244,-2.536585,61.463414)"
       x1="21.013996"
       y1="25.433903"
       x2="22.805599"
       y2="27.343702" />
    <linearGradient
       inkscape:collect="always"
       xlink:href="#linearGradient4168"
       id="linearGradient4140"
       gradientUnits="userSpaceOnUse"
       gradientTransform="matrix(1.4390244,0,0,1.4390244,-2.536585,61.463414)"
       x1="27.92535"
       y1="15.149301"
       x2="33.447899"
       y2="22.986004" />
    <radialGradient
       inkscape:collect="always"
       xlink:href="#linearGradient2867-449-88-871-390-598-476-591-434-148-57-177-3-8"
       id="radialGradient4145"
       gradientUnits="userSpaceOnUse"
       gradientTransform="matrix(0,3.5958841,-3.8040162,-9.7874431e-8,64.14322,43.935424)"
       cx="3.9722471"
       cy="8.4497671"
       fx="3.9722471"
       fy="8.4497671"
       r="19.99999" />
    <linearGradient
       id="linearGradient4011">
      <stop
         offset="0"
         style="stop-color:#ffffff;stop-opacity:1"
         id="stop4013" />
      <stop
         offset="0.507761"
         style="stop-color:#ffffff;stop-opacity:0.23529412"
         id="stop4015" />
      <stop
         offset="0.83456558"
         style="stop-color:#ffffff;stop-opacity:0.15686275"
         id="stop4017" />
      <stop
         offset="1"
         style="stop-color:#ffffff;stop-opacity:0.39215687"
         id="stop4019" />
    </linearGradient>
    <linearGradient
       gradientTransform="matrix(1.054054,0,0,1.054054,-50.611001,36.271434)"
       gradientUnits="userSpaceOnUse"
       xlink:href="#linearGradient4011"
       id="linearGradient3012"
       y2="44.340794"
       x2="71.204407"
       y1="6.2375584"
       x1="71.204407" />
    <radialGradient
       gradientTransform="matrix(0,2.4988347,-2.6434689,-6.8014435e-8,47.336814,26.818867)"
       gradientUnits="userSpaceOnUse"
       xlink:href="#linearGradient4325"
       id="radialGradient3015"
       fy="8.4497671"
       fx="3.9722471"
       r="19.99999"
       cy="8.4497671"
       cx="3.9722471" />
    <radialGradient
       gradientTransform="matrix(0.27083381,0,0,0.08762273,-1.8550716,64.186563)"
       gradientUnits="userSpaceOnUse"
       xlink:href="#linearGradient3820-7-2"
       id="radialGradient3018"
       fy="186.17059"
       fx="99.157013"
       r="62.769119"
       cy="186.17059"
       cx="99.157013" />
    <linearGradient
       gradientUnits="userSpaceOnUse"
       xlink:href="#linearGradient4168"
       id="linearGradient3951"
       y2="22.986004"
       x2="33.447899"
       y1="15.149301"
       x1="27.92535"
       gradientTransform="translate(1.0000004,38.999335)" />
    <linearGradient
       gradientUnits="userSpaceOnUse"
       xlink:href="#linearGradient3957-2"
       id="linearGradient3963"
       y2="26"
       x2="24"
       y1="22"
       x1="24"
       gradientTransform="matrix(0.75,0,0,0.75,7.0000002,44.999334)" />
    <linearGradient
       gradientUnits="userSpaceOnUse"
       xlink:href="#linearGradient3957-2"
       id="linearGradient3963-7"
       y2="27.343702"
       x2="22.805599"
       y1="25.433903"
       x1="21.013996"
       gradientTransform="translate(1.0000004,38.999335)" />
    <radialGradient
       inkscape:collect="always"
       xlink:href="#linearGradient3820-7-2"
       id="radialGradient4289"
       gradientUnits="userSpaceOnUse"
       gradientTransform="matrix(0.27083381,0,0,0.08762273,76.144928,64.186563)"
       cx="99.157013"
       cy="186.17059"
       fx="99.157013"
       fy="186.17059"
       r="62.769119" />
    <radialGradient
       inkscape:collect="always"
       xlink:href="#linearGradient4335"
       id="radialGradient4291"
       gradientUnits="userSpaceOnUse"
       gradientTransform="matrix(0,2.4988347,-2.6434689,-6.8014435e-8,125.33681,26.818867)"
       cx="3.9722471"
       cy="8.4497671"
       fx="3.9722471"
       fy="8.4497671"
       r="19.99999" />
    <linearGradient
       inkscape:collect="always"
       xlink:href="#linearGradient4011"
       id="linearGradient4293"
       gradientUnits="userSpaceOnUse"
       gradientTransform="matrix(1.054054,0,0,1.054054,27.388999,36.271434)"
       x1="71.204407"
       y1="6.2375584"
       x2="71.204407"
       y2="44.340794" />
    <linearGradient
       inkscape:collect="always"
       xlink:href="#linearGradient4168"
       id="linearGradient4295"
       gradientUnits="userSpaceOnUse"
       x1="27.92535"
       y1="15.149301"
       x2="33.447899"
       y2="22.986004"
       gradientTransform="translate(79,38.999335)" />
    <linearGradient
       inkscape:collect="always"
       xlink:href="#linearGradient3957-2"
       id="linearGradient4297"
       gradientUnits="userSpaceOnUse"
       x1="21.013996"
       y1="25.433903"
       x2="22.805599"
       y2="27.343702"
       gradientTransform="translate(79,38.999335)" />
    <linearGradient
       inkscape:collect="always"
       xlink:href="#linearGradient3957-2"
       id="linearGradient4299"
       gradientUnits="userSpaceOnUse"
       x1="24"
       y1="22"
       x2="24"
       y2="26"
       gradientTransform="matrix(0.75,0,0,0.75,85,44.999334)" />
  </defs>
  <metadata
     id="metadata3494">
    <rdf:RDF>
      <cc:Work
         rdf:about="">
        <dc:format>image/svg+xml</dc:format>
        <dc:type
           rdf:resource="http://purl.org/dc/dcmitype/StillImage" />
        <dc:title></dc:title>
      </cc:Work>
    </rdf:RDF>
  </metadata>
  <g
     id="g4912">
    <path
       style="fill:url(#radialGradient3018);fill-opacity:1;stroke:none"
       id="path3818-0-5"
       d="m 41.999999,80.499334 a 17,5.4999999 0 1 1 -33.9999986,0 17,5.4999999 0 1 1 33.9999986,0 z"
       inkscape:connector-curvature="0" />
    <path
       style="color:#000000;display:inline;overflow:visible;visibility:visible;fill:url(#radialGradient3015);fill-opacity:1;fill-rule:nonzero;stroke:none;stroke-width:1;marker:none;enable-background:accumulate"
       id="path2555-2"
       d="m 25.000003,42.499333 c -11.311193,0 -20.500003,9.188806 -20.500003,20.5 0,11.311194 9.18881,20.500005 20.500003,20.500002 11.311188,0 20.500008,-9.188808 20.499997,-20.500002 0,-11.311194 -9.188809,-20.5 -20.499997,-20.5 z"
       inkscape:connector-curvature="0" />
    <path
       style="color:#000000;display:inline;overflow:visible;visibility:visible;opacity:0.5;fill:none;stroke:url(#linearGradient3012);stroke-width:1;stroke-linecap:round;stroke-linejoin:round;stroke-miterlimit:4;stroke-dasharray:none;stroke-dashoffset:0;stroke-opacity:1;marker:none;enable-background:accumulate"
       id="path8655"
       d="m 44.5,62.998643 c 0,10.7699 -8.73109,19.50069 -19.499753,19.50069 C 14.230598,82.499333 5.5,73.768444 5.5,62.998643 5.5,52.229241 14.230598,43.499335 25.000247,43.499335 35.76891,43.499335 44.5,52.229241 44.5,62.998643 l 0,0 z"
       inkscape:connector-curvature="0" />
    <path
       style="color:#000000;display:inline;overflow:visible;visibility:visible;opacity:0.5;fill:#000000;fill-opacity:0;fill-rule:nonzero;stroke:#007d0f;stroke-width:1;stroke-linecap:round;stroke-linejoin:round;stroke-miterlimit:4;stroke-dasharray:none;stroke-dashoffset:0;stroke-opacity:1;marker:none;enable-background:accumulate"
       id="path2555-6"
       d="m 25.000003,42.499333 c -11.311193,0 -20.500003,9.188806 -20.500003,20.5 0,11.311194 9.18881,20.500005 20.500003,20.500002 11.311188,0 20.500008,-9.188808 20.499997,-20.500002 0,-11.311194 -9.188809,-20.5 -20.499997,-20.5 z"
       inkscape:connector-curvature="0" />
    <path
       style="color:#000000;display:inline;overflow:visible;visibility:visible;opacity:0.05;fill:#000000;fill-opacity:1;fill-rule:nonzero;stroke:none;stroke-width:1;marker:none;enable-background:accumulate"
       id="path4097"
       d="m 37.59375,50.468085 a 0.80849739,0.80849739 0 0 0 -0.375,0.1875 l -14.125,11.3125 a 0.80849739,0.80849739 0 0 0 -0.125,0.125 l -11.3125,14.125 a 0.80849739,0.80849739 0 0 0 1.125,1.125 l 14.125,-11.3125 a 0.80849739,0.80849739 0 0 0 0.125,-0.125 l 11.3125,-14.125 a 0.80849739,0.80849739 0 0 0 -0.75,-1.3125 z"
       inkscape:connector-curvature="0" />
    <path
       style="color:#000000;display:inline;overflow:visible;visibility:visible;opacity:0.15;fill:#000000;fill-opacity:1;fill-rule:nonzero;stroke:none;stroke-width:1;marker:none;enable-background:accumulate"
       id="path3022-96"
       d="m 37.71875,51.280835 -14.125,11.3125 -11.3125,14.125 14.125,-11.3125 11.3125,-14.125 z"
       inkscape:connector-curvature="0" />
    <path
       style="fill:url(#linearGradient3951);fill-opacity:1;stroke:none"
       id="path3022-2"
       d="m 23.585786,61.585121 2.828428,2.828428 11.313708,-14.142136 z"
       inkscape:connector-curvature="0" />
    <path
       style="color:#000000;display:inline;overflow:visible;visibility:visible;fill:url(#linearGradient3963-7);fill-opacity:1;fill-rule:nonzero;stroke:none;stroke-width:0.75;marker:none;enable-background:accumulate"
       id="path3022-9-4"
       d="m 23.585786,61.585121 2.828428,2.828428 -14.142136,11.313708 z"
       inkscape:connector-curvature="0" />
    <path
       style="color:#000000;display:inline;overflow:visible;visibility:visible;opacity:0.2;fill:#000000;fill-opacity:1;fill-rule:nonzero;stroke:none;stroke-width:1.33333337;marker:none;enable-background:accumulate"
       id="path3955-1-5"
       d="m 27,63.499335 a 2,2 0 0 1 -4,0 2,2 0 1 1 4,0 z"
       inkscape:connector-curvature="0" />
    <path
       style="color:#000000;display:inline;overflow:visible;visibility:visible;opacity:0.05;fill:#ffffff;fill-opacity:1;fill-rule:nonzero;stroke:none;stroke-width:1;marker:none;enable-background:accumulate"
       id="path3953-8"
       d="m 24.318541,63.731192 a 1,1 0 0 1 0.678908,-1.731854 L 25,62.999335 Z"
       inkscape:connector-curvature="0" />
    <path
       style="color:#000000;display:inline;overflow:visible;visibility:visible;opacity:0.2;fill:#000000;fill-opacity:1;fill-rule:nonzero;stroke:none;stroke-width:1.33333337;marker:none;enable-background:accumulate"
       id="path3955-1"
       d="m 26.5,63.499335 a 1.5,1.5 0 0 1 -3,0 1.5,1.5 0 1 1 3,0 z"
       inkscape:connector-curvature="0" />
    <path
       style="color:#000000;display:inline;overflow:visible;visibility:visible;fill:url(#linearGradient3963);fill-opacity:1;fill-rule:nonzero;stroke:none;stroke-width:1;marker:none;enable-background:accumulate"
       id="path3955-66"
       d="m 26.5,62.999334 a 1.5,1.5 0 0 1 -3,0 1.5,1.5 0 1 1 3,0 z"
       inkscape:connector-curvature="0" />
  </g>
  <g
     id="g4898">
    <path
       inkscape:connector-curvature="0"
       d="m 120,80.499334 a 17,5.4999999 0 1 1 -34,0 17,5.4999999 0 1 1 34,0 z"
       id="path4265"
       style="fill:url(#radialGradient4289);fill-opacity:1;stroke:none" />
    <path
       inkscape:connector-curvature="0"
       d="m 103,42.499333 c -11.31119,0 -20.5,9.188806 -20.5,20.5 0,11.311194 9.18881,20.500005 20.5,20.500002 11.31119,0 20.50001,-9.188808 20.5,-20.500002 0,-11.311194 -9.18881,-20.5 -20.5,-20.5 z"
       id="path4267"
       style="color:#000000;display:inline;overflow:visible;visibility:visible;fill:url(#radialGradient4291);fill-opacity:1;fill-rule:nonzero;stroke:none;stroke-width:1;marker:none;enable-background:accumulate" />
    <path
       inkscape:connector-curvature="0"
       d="m 122.5,62.998643 c 0,10.7699 -8.73109,19.50069 -19.49975,19.50069 -10.769652,0 -19.50025,-8.730889 -19.50025,-19.50069 0,-10.769402 8.730598,-19.499308 19.50025,-19.499308 10.76866,0 19.49975,8.729906 19.49975,19.499308 l 0,0 z"
       id="path4269"
       style="color:#000000;display:inline;overflow:visible;visibility:visible;opacity:0.5;fill:none;stroke:url(#linearGradient4293);stroke-width:1;stroke-linecap:round;stroke-linejoin:round;stroke-miterlimit:4;stroke-dasharray:none;stroke-dashoffset:0;stroke-opacity:1;marker:none;enable-background:accumulate" />
    <path
       inkscape:connector-curvature="0"
       d="m 103,42.499333 c -11.31119,0 -20.5,9.188806 -20.5,20.5 0,11.311194 9.18881,20.500005 20.5,20.500002 11.31119,0 20.50001,-9.188808 20.5,-20.500002 0,-11.311194 -9.18881,-20.5 -20.5,-20.5 z"
       id="path4271"
       style="color:#000000;display:inline;overflow:visible;visibility:visible;opacity:0.5;fill:#000000;fill-opacity:0;fill-rule:nonzero;stroke:#7d1d00;stroke-width:1;stroke-linecap:round;stroke-linejoin:round;stroke-miterlimit:4;stroke-dasharray:none;stroke-dashoffset:0;stroke-opacity:1;marker:none;enable-background:accumulate" />
    <path
       inkscape:connector-curvature="0"
       d="m 115.59375,50.468085 a 0.80849739,0.80849739 0 0 0 -0.375,0.1875 l -14.125,11.3125 a 0.80849739,0.80849739 0 0 0 -0.125,0.125 l -11.3125,14.125 a 0.80849739,0.80849739 0 0 0 1.125,1.125 l 14.125,-11.3125 a 0.80849739,0.80849739 0 0 0 0.125,-0.125 l 11.3125,-14.125 a 0.80849739,0.80849739 0 0 0 -0.75,-1.3125 z"
       id="path4273"
       style="color:#000000;display:inline;overflow:visible;visibility:visible;opacity:0.05;fill:#000000;fill-opacity:1;fill-rule:nonzero;stroke:none;stroke-width:1;marker:none;enable-background:accumulate" />
    <path
       inkscape:connector-curvature="0"
       d="m 115.71875,51.280835 -14.125,11.3125 -11.3125,14.125 14.125,-11.3125 11.3125,-14.125 z"
       id="path4275"
       style="color:#000000;display:inline;overflow:visible;visibility:visible;opacity:0.15;fill:#000000;fill-opacity:1;fill-rule:nonzero;stroke:none;stroke-width:1;marker:none;enable-background:accumulate" />
    <path
       inkscape:connector-curvature="0"
       d="m 101.58579,61.585121 2.82842,2.828428 11.31371,-14.142136 z"
       id="path4277"
       style="fill:url(#linearGradient4295);fill-opacity:1;stroke:none" />
    <path
       inkscape:connector-curvature="0"
       d="m 101.58579,61.585121 2.82842,2.828428 -14.142132,11.313708 z"
       id="path4279"
       style="color:#000000;display:inline;overflow:visible;visibility:visible;fill:url(#linearGradient4297);fill-opacity:1;fill-rule:nonzero;stroke:none;stroke-width:0.75;marker:none;enable-background:accumulate" />
    <path
       inkscape:connector-curvature="0"
       d="m 105,63.499335 a 2,2 0 0 1 -4,0 2,2 0 1 1 4,0 z"
       id="path4281"
       style="color:#000000;display:inline;overflow:visible;visibility:visible;opacity:0.2;fill:#000000;fill-opacity:1;fill-rule:nonzero;stroke:none;stroke-width:1.33333337;marker:none;enable-background:accumulate" />
    <path
       inkscape:connector-curvature="0"
       d="m 102.31854,63.731192 a 1,1 0 0 1 0.67891,-1.731854 L 103,62.999335 Z"
       id="path4283"
       style="color:#000000;display:inline;overflow:visible;visibility:visible;opacity:0.05;fill:#ffffff;fill-opacity:1;fill-rule:nonzero;stroke:none;stroke-width:1;marker:none;enable-background:accumulate" />
    <path
       inkscape:connector-curvature="0"
       d="m 104.5,63.499335 a 1.5,1.5 0 0 1 -3,0 1.5,1.5 0 1 1 3,0 z"
       id="path4285"
       style="color:#000000;display:inline;overflow:visible;visibility:visible;opacity:0.2;fill:#000000;fill-opacity:1;fill-rule:nonzero;stroke:none;stroke-width:1.33333337;marker:none;enable-background:accumulate" />
    <path
       inkscape:connector-curvature="0"
       d="m 104.5,62.999334 a 1.5,1.5 0 0 1 -3,0 1.5,1.5 0 1 1 3,0 z"
       id="path4287"
       style="color:#000000;display:inline;overflow:visible;visibility:visible;fill:url(#linearGradient4299);fill-opacity:1;fill-rule:nonzero;stroke:none;stroke-width:1;marker:none;enable-background:accumulate" />
  </g>
  <g
     id="g4176"
     transform="translate(32,-33.001531)">
    <path
       d="m 55.999998,120.5 a 24,7.4999998 0 1 1 -47.999999,0 24,7.4999998 0 1 1 47.999999,0 z"
       inkscape:connector-curvature="0"
       id="path3818-0"
       style="fill:url(#radialGradient3300);fill-opacity:1;stroke:none" />
    <path
       style="color:#000000;display:inline;overflow:visible;visibility:visible;fill:url(#radialGradient4145);fill-opacity:1;fill-rule:nonzero;stroke:none;stroke-width:1;marker:none;enable-background:accumulate"
       id="path2555"
       d="M 32.000004,66.499997 C 15.722922,66.499997 2.5,79.722913 2.5,95.999997 2.5,112.27708 15.722922,125.5 32.000004,125.5 48.27708,125.5 61.500016,112.27708 61.5,95.999997 c 0,-16.277084 -13.22292,-29.5 -29.499996,-29.5 z"
       inkscape:connector-curvature="0" />
    <path
       transform="translate(0,64)"
       d="m 50.269531,13.914062 a 0.77522644,0.77522644 0 0 0 -0.441406,0.167969 l -20.34375,16.28125 a 0.77522644,0.77522644 0 0 0 -0.121094,0.121094 l -16.28125,20.34375 a 0.77522644,0.77522644 0 0 0 1.089844,1.089844 l 20.34375,-16.28125 a 0.77522644,0.77522644 0 0 0 0.121094,-0.121094 l 16.28125,-20.34375 a 0.77522644,0.77522644 0 0 0 -0.648438,-1.257813 z"
       id="path4242"
       style="color:#000000;display:inline;overflow:visible;visibility:visible;opacity:0.05;fill:#000000;fill-opacity:1;fill-rule:nonzero;stroke:none;stroke-width:1;marker:none;enable-background:accumulate"
       inkscape:original="M 50.3125 14.6875 L 29.96875 30.96875 L 13.6875 51.3125 L 34.03125 35.03125 L 50.3125 14.6875 z "
       inkscape:radius="0.77514893"
       sodipodi:type="inkscape:offset" />
    <path
       inkscape:connector-curvature="0"
       id="path3022-3"
       d="M 50.3125,78.687 29.96875,94.96825 13.6875,115.312 34.03125,99.03075 50.3125,78.687 Z"
       style="color:#000000;display:inline;overflow:visible;visibility:visible;opacity:0.15;fill:#000000;fill-opacity:1;fill-rule:nonzero;stroke:none;stroke-width:1;marker:none;enable-background:accumulate" />
    <path
       style="fill:url(#linearGradient4140);fill-opacity:1;stroke:none"
       id="path3022"
       d="M 29.964912,93.964912 34.035088,98.035088 50.31579,77.684209 Z"
       inkscape:connector-curvature="0" />
    <path
       style="color:#000000;display:inline;overflow:visible;visibility:visible;fill:url(#linearGradient4137);fill-opacity:1;fill-rule:nonzero;stroke:none;stroke-width:0.75;marker:none;enable-background:accumulate"
       id="path3022-9"
       d="M 29.964912,93.964912 34.035088,98.035088 13.68421,114.31579 Z"
       inkscape:connector-curvature="0" />
    <path
       style="color:#000000;display:inline;overflow:visible;visibility:visible;opacity:0.05;fill:#ffffff;fill-opacity:1;fill-rule:nonzero;stroke:none;stroke-width:1;marker:none;enable-background:accumulate"
       id="path3953"
       d="m 31.019364,97.05316 a 1.4390244,1.4390244 0 0 1 0.976965,-2.49218 L 32.000029,96 Z"
       inkscape:connector-curvature="0" />
    <path
       d="m 32,66.499999 c -16.277082,0 -29.5,13.222915 -29.5,29.499998 C 2.5,112.27708 15.722918,125.5 32,125.5 48.27708,125.5 61.50001,112.27708 61.5,95.999997 61.5,79.722914 48.27708,66.499999 32,66.499999 Z"
       inkscape:connector-curvature="0"
       id="path2555-7-1"
       style="color:#000000;display:inline;overflow:visible;visibility:visible;opacity:0.5;fill:#000000;fill-opacity:0;fill-rule:nonzero;stroke:#00537d;stroke-width:1;stroke-linecap:round;stroke-linejoin:round;stroke-miterlimit:4;stroke-dasharray:none;stroke-dashoffset:0;stroke-opacity:1;marker:none;enable-background:accumulate" />
    <path
       d="M 60.50001,95.999999 C 60.50001,111.74011 47.74011,124.5 31.99999,124.5 16.259891,124.5 3.499999,111.74011 3.499999,95.999999 c 0,-15.740116 12.759892,-28.500001 28.499991,-28.500001 15.74012,0 28.50002,12.759885 28.50002,28.500001 z"
       inkscape:connector-curvature="0"
       id="path3019"
       style="color:#000000;display:inline;overflow:visible;visibility:visible;opacity:0.5;fill:none;stroke:url(#linearGradient3293);stroke-width:1;stroke-linecap:round;stroke-linejoin:round;stroke-miterlimit:4;stroke-dasharray:none;stroke-dashoffset:0;stroke-opacity:1;marker:none;enable-background:accumulate" />
    <path
       style="color:#000000;display:inline;overflow:visible;visibility:visible;opacity:0.05;fill:#000000;fill-opacity:1;fill-rule:nonzero;stroke:none;stroke-width:1;marker:none;enable-background:accumulate"
       id="path3955-6-6"
       d="m 35,97 a 3,3 0 0 1 -6,0 3,3 0 1 1 6,0 z"
       inkscape:connector-curvature="0" />
    <path
       style="color:#000000;display:inline;overflow:visible;visibility:visible;opacity:0.15;fill:#000000;fill-opacity:1;fill-rule:nonzero;stroke:none;stroke-width:1;marker:none;enable-background:accumulate"
       id="path3955-6"
       d="m 34,97 a 2,2 0 0 1 -4,0 2,2 0 1 1 4,0 z"
       inkscape:connector-curvature="0" />
    <path
       style="color:#000000;display:inline;overflow:visible;visibility:visible;fill:url(#linearGradient4131);fill-opacity:1;fill-rule:nonzero;stroke:none;stroke-width:1;marker:none;enable-background:accumulate"
       id="path3955"
       d="m 34,95.999998 a 2,2 0 0 1 -4,0 2,2 0 1 1 4,0 z"
       inkscape:connector-curvature="0" />
  </g>
</svg>
